<?xml version="1.0" encoding="utf-8"?>
<!-- Generator: Adobe Illustrator 22.1.0, SVG Export Plug-In . SVG Version: 6.00 Build 0)  -->
<svg version="1.1" id="Layer_1" xmlns="http://www.w3.org/2000/svg" xmlns:xlink="http://www.w3.org/1999/xlink" x="0px" y="0px"
	 viewBox="0 0 158.7 60" style="enable-background:new 0 0 158.7 60;" xml:space="preserve">
<style type="text/css">
	.st0{fill:#FFFFFF;}
</style>
<g>
	<path class="st0" d="M87.6,32.1c0.1,0,0.2,0.1,0.3,0.1c1.7,0.8,3.5,1.7,5.2,2.5c0.1,0,0.2,0.1,0.2,0.1c0.1,0,0.1,0.1,0.1,0.2
		c0,0,0,0,0,0.1c-0.7,2.2-1.8,4.2-3.4,5.9c-1.8,1.9-4,3.1-6.5,3.8c-2.3,0.6-4.6,0.7-7,0.5c-1.4-0.1-2.8-0.3-4.2-0.7
		c-2.2-0.6-4.1-1.7-5.7-3.3c-1.8-1.9-3.1-4.1-3.8-6.6C62,31.4,62,28.2,63,25c1.4-4.8,4.6-8,9.3-9.6c2.4-0.8,4.8-1.1,7.3-0.9
		c1.7,0.1,3.2,0.5,4.8,1.1c0.8,0.3,1.6,0.8,2.3,1.3c0.1,0.1,0.1,0.1,0.2,0.2c0.1,0.1,0.2,0.1,0.2,0.1c0,0,0.1-0.1,0.1-0.2
		c0-0.5,0-1.1,0-1.6c0-0.3,0-0.3,0.4-0.3c1.5,0,2.9,0,4.4,0c0,0,0.1,0,0.1,0c0.1,0,0.2,0.1,0.2,0.2c0,0.1,0,0.3,0,0.4
		c0,3.1,0,6.2,0,9.3c0,0.1,0,0.2,0,0.3c0,0.3,0,0.3-0.3,0.3c-1.5,0-3,0-4.5,0c-0.2,0-0.4-0.1-0.4-0.3c-0.2-0.4-0.4-0.9-0.6-1.3
		c-0.4-0.8-1-1.5-1.6-2.2c-1.1-1-2.3-1.6-3.8-1.8c-1.7-0.3-3.4-0.1-5,0.5c-1.2,0.5-2.2,1.2-3,2.3c-1.2,1.6-1.9,3.3-2.2,5.3
		c-0.3,1.8-0.2,3.6,0.3,5.4c0.5,1.7,1.3,3.2,2.7,4.4c1.4,1.3,3.1,1.9,5,2c3,0.1,5.3-1.1,7-3.5c0.8-1.1,1.2-2.2,1.6-3.5
		c0.1-0.2,0.1-0.4,0.2-0.6C87.5,32.2,87.5,32.2,87.6,32.1z"/>
	<path class="st0" d="M16.2,13.8C16.3,13.8,16.3,13.9,16.2,13.8c0.2,0.1,0.3-0.1,0.4-0.1c1-1,2.2-1.2,3.6-0.7
		c0.4,0.1,0.7,0.3,1.1,0.5c0.2,0.1,0.3,0.1,0.5,0c0.2-0.2,0.4-0.3,0.6-0.5c1.3-1,2.6-2,3.9-3c0.1-0.1,0.3-0.2,0.4-0.3
		c0.1-0.1,0.2,0,0.2,0.1c0.1,0.3,0,0.6-0.1,0.9c-0.1,0.3-0.2,0.6-0.4,0.9c-0.1,0.1-0.1,0.3-0.1,0.4C26.6,12,26.8,12,27,12
		c0.9,0.1,1.7,0.2,2.6,0.3c2.6,0.3,5.1,1.1,7.5,2.3c2.8,1.4,5.3,3.2,7.4,5.5c2.7,2.9,4.5,6.3,5.4,10.2c0.6,2.5,0.4,5-0.4,7.4
		c-0.2,0.7-0.6,1.4-1.1,1.9c-0.7,0.8-1.6,1.4-2.6,1.5c-1.3,0.2-2.5-0.3-3.4-1.3c0,0,0-0.1,0-0.1c0.2-0.1,0.3,0.1,0.4,0.1
		c0.7,0.2,1.4,0.3,2.1,0.1c1.4-0.4,2.4-1.3,2.9-2.7c0.1-0.2,0.1-0.5,0.2-0.7c0.2-1.6,0.1-3.3-0.1-4.9c-0.3-2.4-1.1-4.6-2.2-6.7
		c-1.1-2-2.6-3.8-4.2-5.3c-3.4-3.2-7.4-5.3-11.9-6.3c-1.1-0.2-2.1-0.3-3.2-0.4c-0.1,0-0.2,0.1-0.2,0.2c-0.1,0.3-0.2,0.7-0.3,1
		c-0.1,0.4-0.2,0.8-0.4,1.1c-0.4,0.6-0.9,0.8-1.5,0.6c-0.1-0.1-0.2-0.1-0.4-0.2c-0.1-0.1-0.2-0.1-0.3-0.3c0.2-0.3,0.4-0.6,0.5-0.9
		c0.2-0.3,0.4-0.6,0.6-0.9c0.2-0.3,0.4-0.6,0.5-0.9c-0.1,0-0.1,0-0.2,0c-1.2,1-2.5,1.8-3.8,2.7c-0.2,0.1-0.4,0.3-0.5,0.4
		c-0.3,0.3-0.3,0.5,0,0.8c0.2,0.2,0.4,0.4,0.7,0.7c0.2,0.1,0.4,0.3,0.5,0.4c0.3,0.2,0.2,0.3-0.1,0.5c-0.3,0.1-0.6,0.1-0.9,0.1
		c-0.4,0-0.9-0.1-1.3-0.1c-0.9,0.1-1.6,0.3-2.3,0.8c-0.8,0.5-1.5,1.2-2,2c0,0.1-0.1,0.1-0.1,0.2c0,0,0,0.1,0,0.1
		c0.1,0.1,0.2,0.1,0.4,0.2c0.4,0.1,0.7,0.1,1.1,0.2c0,0,0.1,0.1,0.1,0.1c0,0.1,0,0.1-0.1,0.2C16,21.9,15.9,22,15.8,22
		c-1.9,0.9-3.7,1.8-5.6,2.7c-1.2,0.6-2.1,1.4-2.9,2.4c-0.9,1.2-1.9,2.2-3.1,3.2c0,0-0.1,0.1-0.1,0.1c-0.7,0.5-0.8,1.1-0.6,1.9
		c0,0.1,0.1,0.2,0.1,0.3c0.7-0.2,1-0.7,1.2-1.7c0.2,0,0.4,0.2,0.6,0.3c0.2,0.2,0.4,0.4,0.5,0.7C6,32.4,5.9,33,5.5,33.4
		c-0.2,0.3-0.5,0.4-0.8,0.6c-0.2,0.1-0.3,0.2-0.5,0.4c-0.1,0.1-0.1,0.1-0.1,0.2c0.1,0.3,0.2,0.7,0.4,1c0.2,0.3,0.4,0.4,0.8,0.3
		c1.1-0.4,2.2-0.7,3.3-1.1c-0.1-0.4-0.2-0.7-0.4-1c-0.1-0.2,0-0.3,0.1-0.3c0.5-0.1,1-0.3,1.5-0.3c1.1-0.1,2.2-0.2,3.4-0.3
		c0.4,0,0.8-0.1,1.1-0.3c0.6-0.4,0.9-1,0.9-1.7c0-0.2-0.1-0.3-0.3-0.3c-0.5-0.1-0.9-0.1-1.4,0c-0.7,0.1-1.3,0.4-1.9,0.6
		c-0.4,0.2-0.8,0.4-1.1,0.6c-0.1,0-0.2,0.1-0.2,0.1c-0.1,0-0.1,0-0.2-0.1c0,0,0-0.1,0-0.1c0.4-0.5,0.7-1,1.3-1.3
		c0.9-0.5,1.9-1,2.9-1.4c0.3-0.1,0.5-0.2,0.8-0.2c0.6-0.1,1,0.1,1.4,0.5c0.2,0.2,0.4,0.5,0.5,0.7c0.3,0.4,0.5,0.7,0.9,1
		c0.4,0.3,0.8,0.5,1.2,0.4c1.5-0.1,2.9-0.3,4.4-0.5c1-0.2,1.7-0.8,1.9-1.7c0.6-2.5,0.8-5,0.4-7.5c-0.2-1.1-0.3-2.2-0.4-3.3
		c0-0.1,0-0.3,0-0.4c0-0.1,0.1-0.1,0.2-0.1c0.2,0.1,0.3,0.3,0.4,0.4c0.5,0.6,1.1,1.2,1.6,1.7c0.4,0.5,0.9,0.9,1.4,1.3
		c2.4,2.1,3.9,4.7,4.5,7.8c0.3,1.5,0.3,3,0.1,4.4c-0.3,1.9-0.7,3.7-1.2,5.5c-0.1,0.3-0.2,0.6-0.3,0.9c0,0-0.1-0.1-0.1-0.1
		c0,0,0,0,0,0c-0.1-0.5,0.1-1,0.1-1.5c0.1-1.1,0.2-2.1,0.3-3.2c0.2-2.2,0.2-4.4-0.5-6.6c-0.4-1.2-0.8-2.3-1.5-3.4
		c-0.1-0.2-0.3-0.5-0.5-0.6c-0.4-0.5-1-0.5-1.6-0.4c-0.7,0.2-1,0.9-0.7,1.6c0.1,0.2,0.2,0.4,0.3,0.5c0.6,0.9,1.2,1.8,1.8,2.7
		c0.4,0.7,0.8,1.4,1,2.1c0.3,1.2,0.2,2.4-0.1,3.6c-0.5,1.8-1.1,3.6-1.8,5.4c-0.7,1.8-1.3,3.6-1.7,5.5c-0.5,2.1-0.8,4.2-0.8,6.3
		c0,0.2,0,0.5-0.1,0.7c0,0,0,0.1-0.1,0.1c0,0-0.1,0-0.1-0.1c0,0,0,0,0-0.1c-0.3-1.1-0.6-2.1-0.7-3.2c-0.2-1.4,0-2.7,0.2-4.1
		c0.4-1.8,0.9-3.6,1.5-5.3c0.3-1,0.7-2,0.9-3.1c0.1-0.6,0.2-1.1,0.2-1.7c0-0.7,0.1-1.4,0.1-2.1c0.1-1-0.4-1.6-1.2-2.1
		c-0.3-0.2-0.6-0.2-1-0.1c-0.1,0.1-0.2,0.1-0.4,0.2c-1.4,0.8-2.8,1.4-4.3,2.1c-0.6,0.3-1.3,0.3-1.9,0.1c-0.3-0.1-0.6-0.2-0.9-0.2
		c-0.5-0.1-1,0-1.5,0.2c-1.8,0.7-3.6,1.3-5.5,2c-0.7,0.2-1.2,0.7-1.7,1.2c-0.3,0.4-0.5,0.7-0.8,1.1C9.2,38,9,38.2,8.8,38.5
		c-0.3,0.4-0.7,0.5-1.1,0.4c-0.4-0.1-0.7-0.2-1.1-0.2c-0.3-0.1-0.6-0.1-0.9,0c-0.5,0.2-1.1,0.1-1.5-0.2c-0.2-0.1-0.3-0.1-0.5-0.2
		c-1.2-0.1-1.7-0.5-1.8-1.7c0-0.4,0-0.7-0.1-1.1c0-0.7-0.1-1.4-0.1-2.1c0-0.4-0.1-0.9,0-1.3c0.1-1.1,0.5-2,1.3-2.7
		c1.2-1,2.2-2.2,3.3-3.3c1.6-1.6,3.2-3.1,4.9-4.6c1.5-1.3,2.9-2.7,4.5-4c1.5-1.2,3-2.3,4.6-3.3c0.1-0.1,0.2-0.1,0.3-0.2
		c0,0,0,0,0-0.1c-1.3-0.4-3.4-0.2-4.5,0.5c-0.1-0.1,0.1-0.3-0.1-0.3l0,0c0.2,0,0.2-0.2,0.2-0.4C16.3,13.8,16.3,13.8,16.2,13.8
		L16.2,13.8z"/>
	<path class="st0" d="M107.4,23.6c1.8,0,3.5,0.3,5.1,1.1c3.3,1.6,5.3,4.2,5.8,7.9c0.2,1.7,0.2,3.4-0.2,5.1c-1,3.7-3.4,6.1-7,7.3
		c-1.6,0.5-3.3,0.6-5,0.5c-1.3-0.1-2.5-0.4-3.6-1c-3.2-1.5-5.2-4-5.8-7.6c-0.3-1.9-0.3-3.8,0.2-5.6c0.7-2.8,2.4-4.9,4.9-6.3
		c1.5-0.8,3.1-1.3,4.8-1.4C106.7,23.6,107,23.6,107.4,23.6z M111.5,34.8c0-1,0-1.7-0.2-2.4c-0.2-0.8-0.5-1.6-1-2.2
		c-0.6-0.7-1.3-1.2-2.2-1.4c-0.4-0.1-0.8-0.1-1.2-0.1c-1.3,0.1-2.2,0.6-2.9,1.7c-0.2,0.4-0.4,0.8-0.5,1.2c-0.4,1.6-0.5,3.2-0.2,4.8
		c0.1,0.8,0.4,1.6,0.9,2.2c0.5,0.8,1.2,1.3,2.2,1.5c0.4,0.1,0.8,0.1,1.2,0.1c0.8,0,1.6-0.3,2.2-0.9c0.7-0.6,1.1-1.3,1.3-2.2
		C111.4,36.3,111.5,35.4,111.5,34.8z"/>
	<path class="st0" d="M131.6,27.6c0,3.9,0,7.9,0,11.8c0,0.8-0.1,0.8,0.8,0.8c0.6,0,1.2,0,1.8,0c0.5,0,0.5,0,0.5,0.5
		c0,1.3,0,2.6,0,3.9c0,0.1,0,0.2,0,0.3c0,0.1-0.1,0.2-0.2,0.2c-0.1,0-0.3,0-0.4,0c-3.9,0-7.9,0-11.8,0c-0.1,0-0.2,0-0.3,0
		c-0.3,0-0.3,0-0.3-0.3c0-1.4,0-2.7,0-4.1c0-0.3,0-0.4,0.4-0.4c0.7,0,1.5,0,2.2,0c0.2,0,0.3,0,0.5,0c0.1,0,0.2-0.1,0.2-0.2
		c0-0.1,0-0.3,0-0.4c0-6.4,0-12.8,0-19.3c0-0.1,0-0.2,0-0.3c0-0.1-0.1-0.2-0.2-0.2c-0.2,0-0.4,0-0.5,0c-0.7,0-1.5,0-2.2,0
		c-0.2,0-0.3-0.1-0.3-0.3c0-0.1,0-0.3,0-0.4c0-1.1,0-2.3,0-3.4c0-0.2,0-0.4,0-0.5c0-0.1,0.1-0.2,0.2-0.2c0.1,0,0.3,0,0.4,0
		c3,0,5.9,0,8.9,0c0.1,0,0.2,0,0.3,0c0.1,0,0.2,0.1,0.2,0.2c0,0.2,0,0.4,0,0.6C131.6,19.7,131.6,23.7,131.6,27.6z"/>
	<path class="st0" d="M149.7,39.7c0,0.1,0.1,0.2,0.1,0.2c0,1.4,0,2.7,0,4.1c0,0.2-0.1,0.4-0.3,0.4c-1.2,0.4-2.4,0.8-3.7,0.9
		c-1,0.1-1.9,0.1-2.9-0.1c-2.2-0.5-3.3-1.9-3.6-3.9c-0.1-0.5-0.1-1-0.1-1.5c0-3.3,0-6.6,0-9.9c0-0.2,0-0.4,0-0.5
		c0-0.3-0.1-0.3-0.3-0.3c-0.6,0-1.3,0-1.9,0c-0.4,0-0.4,0-0.4-0.4c0-1,0-2,0-3c0-0.4,0-0.8,0-1.1c0-0.2,0.1-0.2,0.3-0.2
		c0.5,0,1.1,0,1.6,0c0.2,0,0.3,0,0.5,0c0.3,0,0.3,0,0.3-0.3c0-0.8,0-1.7,0-2.5c0-0.3,0.1-0.5,0.3-0.7c2-1.4,4-2.9,6-4.3
		c0.1-0.1,0.2-0.2,0.3-0.1c0,0.2,0,0.4,0,0.6c0,2.2,0,4.4,0,6.6c0,0.2,0,0.4,0,0.5c0,0.1,0.1,0.2,0.2,0.2c0.2,0,0.3,0,0.5,0
		c0.8,0,1.7,0,2.5,0c0.1,0,0.3,0,0.4,0c0.1,0,0.2,0.1,0.2,0.2c0,0.1,0,0.2,0,0.3c0,1.3,0,2.6,0,3.9c0,0,0,0,0,0.1
		c0,0.4,0,0.4-0.4,0.4c-0.3,0-0.5,0-0.8,0c-0.8,0-1.5,0-2.3,0c-0.3,0-0.3,0-0.3,0.3c0,0,0,0.1,0,0.1c0,3,0,5.9,0,8.9
		c0,0.3,0,0.6,0.1,0.9c0.1,0.5,0.4,0.8,0.9,0.8c0.6,0.1,1.3,0.1,1.9-0.1C149.1,39.9,149.4,39.8,149.7,39.7z"/>
	<path class="st0" d="M50.8,46.5c-0.8,0.6-1.7,1-2.7,1.3c-0.1,0-0.3,0.1-0.4,0.1c1-1.3,1-1.4,1.2-2.1c0,0-0.1,0-0.1,0
		c-1,1-2.1,2.1-3,3.2c-0.6,0.7-1,1.5-1.2,2.4c-0.2,0.8-0.2,1.6-0.2,2.3c0,0.3,0.1,0.7,0.3,1c0.1,0.2,0.2,0.4,0.3,0.6
		c-0.1,0.1-0.2,0-0.3-0.1c-0.3-0.3-0.6-0.6-0.7-1c-0.7-1.8-0.7-3.7,0.1-5.5c0.4-0.8,1-1.6,1.7-2.2c0.3-0.3,0.6-0.5,1-0.8
		c0.9-0.7,1.8-1.5,2.5-2.3c0.2-0.2,0.4-0.4,0.6-0.7c0.3,0.4,0.5,0.8,0.5,1.2c0,0.4,0,0.9,0,1.3c0,0.1,0,0.1,0,0.2
		c0.1,0.1,0.1,0,0.2,0c0.2-0.2,0.3-0.4,0.5-0.6c0.3-0.5,0.6-1.1,0.7-1.7c0.2-0.9,0.4-1.8,0.7-2.8c0-0.1,0-0.2,0.1-0.2
		c0.1,0,0.2,0.1,0.2,0.2c0.6,0.9,0.7,1.9,0.7,2.9c0,0.2-0.1,0.3,0,0.5c0,0,0.1,0,0.1,0c0.1-0.1,0.1-0.2,0.2-0.3c0.4-1,0.7-2,1-3.1
		c0.4-1.6,0.5-3.2,0.4-4.8c-0.1-1.8-0.5-3.5-1.1-5.2c-0.5-1.4-1.4-2.4-2.7-2.9c-0.1-0.1-0.3-0.1-0.4-0.2c0.2-0.1,0.3-0.1,0.5-0.2
		c0.6-0.1,1.1-0.1,1.7,0.1c1.5,0.4,2.7,1.3,3.5,2.6c0.6,0.9,0.9,1.9,1.1,3c0.1,0.3,0.1,0.6,0.2,0.8c0.1-0.7,0.1-1.5,0-2.2
		c-0.2-1.4-0.7-2.7-1.4-4c-1.1-2-2.6-3.8-4.4-5.1c-0.8-0.6-1.8-1.1-2.8-1.3c-0.4-0.1-0.7-0.1-1.1-0.1c-0.2,0-0.3-0.1-0.3-0.3
		c0-0.5,0.2-0.9,0.5-1.3c0.5-0.6,1.1-0.9,1.8-1.1c1.7-0.5,3.9,0.4,4.6,2.6c0.1,0.3,0.2,0.6,0.4,0.9c-0.1,0-0.1,0-0.1-0.1
		c0-0.6-0.1-1.1-0.3-1.6c-0.7-1.9-2.1-3.3-3.9-4.3c-0.8-0.4-1.7-0.8-2.6-1c-1.7-0.6-3.5-1-5.2-1.3c-0.8-0.1-1.6-0.2-2.3-0.3
		c-0.1,0-0.2,0-0.4,0c0-0.4,0.2-0.8,0.5-1.1c0.3-0.3,0.6-0.5,0.9-0.7c0.3-0.2,0.7-0.3,1-0.5c0.2-0.1,0.4-0.2,0.6-0.3
		c-0.1-0.2-0.2-0.2-0.4-0.2c-1.4-0.2-2.7-0.5-4.1-0.6c-1.8-0.1-3.6,0-5.3,0.6c-0.1,0-0.2,0.1-0.3,0c0-0.6,0.2-1.1,0.6-1.5
		c0.3-0.3,0.6-0.6,0.9-0.9c0.2-0.2,0.3-0.3,0.5-0.5c0-0.2-0.1-0.2-0.2-0.1c-0.7,0.1-1.4,0.3-2.1,0.4c-0.1,0-0.2,0-0.3,0
		c-0.1,0-0.1-0.1-0.1-0.1c0-0.1,0-0.3,0-0.4c0.1-0.3,0.2-0.5,0.3-0.7c0.9-1.5,2.2-2.5,4-2.7c0.8-0.1,1.6-0.1,2.4,0.2
		c-0.1,0.2-0.3,0.2-0.4,0.2c-1,0.1-1.9,0.5-2.7,1C36.1,4.9,36,5,36,5.2c0.8,0,1.6,0.1,2.3,0.4c0.4,0.2,0.8,0.4,1.2,0.8
		c0.3,0.3,0.6,0.6,1,1c-0.3,0-0.6,0-0.8,0c-0.3,0-0.5,0-0.8,0c-0.2,0-0.5,0.1-0.7,0.1c-0.2,0.1-0.5,0.1-0.7,0.2
		c-0.3,0.1-0.5,0.2-0.7,0.3C36.4,8,36.2,8.1,36,8.3c0.2,0.1,0.3,0,0.4,0c3-0.7,6-0.3,8.9,0.7c2.1,0.7,3.9,1.8,5.7,3.1
		c0.4,0.3,0.7,0.5,1.1,0.8c0.1,0.1,0.2,0.1,0.2,0.3c-0.2,0-0.4-0.1-0.6-0.2c-1.3-0.6-2.7-0.9-4.2-1.1c-1.4-0.2-2.8-0.2-4.2,0
		c-0.4,0.1-0.8,0.1-1.3,0.2c-0.1,0-0.2,0.1-0.2,0.2c0.5-0.1,1-0.1,1.5-0.2c1.8-0.2,3.5,0.1,5.1,0.6c0.9,0.3,1.8,0.6,2.6,1
		c1.8,1,3.1,2.4,3.9,4.3c0.5,1.2,0.6,2.5,0.4,3.9c0,0.1,0,0.1-0.1,0.2c-0.1,0.1-0.1-0.1-0.2-0.1c-0.2-0.3-0.4-0.6-0.7-0.9
		c-0.6-0.8-1.4-1.3-2.4-1.4c-1-0.2-1.9-0.1-2.8,0.2c-0.1,0-0.2,0.1-0.3,0.2c0,0,0,0.1,0,0.1c0,0,0,0,0.1,0c0.1,0,0.2,0,0.3,0
		c1.4-0.1,2.7,0.3,3.9,1c2.9,1.8,4.9,4.3,5.7,7.7c0.3,1.4,0.4,2.9,0,4.3c-0.2,0.7-0.4,1.4-0.6,2.1c-0.3,0.8-0.6,1.6-0.9,2.4
		c0,0.1-0.1,0.2-0.2,0.3c0,0-0.1,0-0.1,0c0-0.1,0-0.3,0-0.4c0.1-0.8,0.1-1.6,0.1-2.4c0-1.3-0.4-2.6-0.9-3.9
		c-0.1-0.1-0.1-0.3-0.2-0.4c0,0-0.1,0-0.1-0.1c-0.1,0.2,0,0.3,0,0.5c0.2,0.7,0.4,1.5,0.6,2.2c0.2,1.4,0.3,2.8,0.1,4.2
		c-0.4,3.9-2.2,7-5.1,9.6c-0.4,0.4-0.8,0.7-1.3,1.1c0.2-0.7,0.6-1.2,0.8-1.9c0.1-0.1,0.1-0.1,0.1-0.2C50.9,46.4,50.9,46.4,50.8,46.5
		z"/>
	<path class="st0" d="M40.7,49.9c-1,0.4-1.9,0.9-2.8,1.5c-1.4,1-2.3,2.4-2.8,4c-0.3,0.8-0.2,1.6,0.4,2.3c0.1,0.1,0.1,0.2,0.2,0.3
		c0,0.1,0.1,0.1,0,0.2c-0.1,0.1-0.2,0-0.2,0c-0.9-0.7-1.7-1.4-2.4-2.3c-0.9-1.2-1.5-2.4-1.7-3.9c-0.1-0.7-0.2-1.4,0-2.2
		c0.2-1.1,0.8-1.9,1.7-2.6c0.7-0.5,1.4-0.8,2.2-1c0.2,0,0.4-0.1,0.6-0.1c0-0.2-0.1-0.2-0.2-0.3c-0.3-0.2-0.6-0.4-0.8-0.6
		c-2.3-2-1.4-5.1,0.9-5.9c0,0.2-0.1,0.3-0.2,0.4c-0.8,1.2-0.8,2.8,0.2,4c0.6,0.8,1.3,1.4,2,2.1c0.1,0.1,0.1,0.1,0.2,0.1
		c-0.1,0.2-0.2,0.3-0.4,0.3c-0.6,0.4-1.3,0.7-1.9,1c-0.5,0.3-1,0.6-1.4,1c-1,0.9-1.4,2.1-1.3,3.5c0.1,1.4,0.6,2.6,1.1,3.9
		c0,0.1,0,0.1,0.1,0.1c0-0.2,0-0.5,0-0.7c0-0.2,0.1-0.5,0.1-0.7c0.3-1.7,1.1-3.1,2.5-4.2c0.7-0.5,1.5-0.8,2.3-1
		c1-0.2,1.9-0.5,2.9-0.7c0,0,0.1,0,0.1,0c0.1,0.1,0,0.2,0,0.3c-0.2,0.7-0.5,1.5-0.5,2.2c-0.1,1.5,0.4,2.8,1.6,3.8
		c0.4,0.3,0.8,0.6,1.2,0.8c0.2,0.1,0.3,0.2,0.5,0.3c-0.7,0-1.2-0.2-1.8-0.4c-0.4-0.2-0.8-0.4-1.2-0.7c-1.3-1-1.7-2.3-1.3-3.9
		c0.1-0.2,0.1-0.5,0.2-0.7c0-0.1,0.1-0.1,0-0.2C40.8,49.8,40.7,49.9,40.7,49.9z"/>
	<path class="st0" d="M16.1,14.2c0,0-0.1,0-0.1,0c-0.1,0.1,0,0.3-0.2,0.2c-0.1,0-0.1-0.2-0.1-0.3c-0.2-1.2,0.3-2.1,1.2-2.8
		c0.4-0.3,0.8-0.3,1.2-0.4c0.1,0,0.3,0,0.4,0c0.3,0,0.3-0.1,0.3-0.3c-0.1-0.3-0.1-0.6-0.1-0.9c0-0.7,0.3-1.2,0.8-1.7
		c0.1-0.1,0.2-0.1,0.2-0.1c0,0,0,0.1,0.1,0.2c0,0.1,0,0.1,0,0.2c0,0.3,0.1,0.5,0.4,0.7c0.5,0.3,1.1,0.5,1.6,0.7c0.1-0.2,0-0.2,0-0.3
		c-0.2-0.4-0.3-0.8-0.4-1.3c-0.1-0.8,0.1-1.5,0.6-2.1c0.2-0.2,0.4-0.4,0.6-0.6c0.8-0.6,1.7-1,2.8-1.2c-0.1,0.4-0.4,0.7-0.5,1.1
		c0.6-0.1,1.1-0.4,1.6-0.5c0.1,0.4-0.1,0.7,0,1c0.2,0,0.2-0.2,0.3-0.3c0.7-1,1.6-1.8,2.6-2.5c1.5-1.1,3.2-1.5,5-1.3
		c1.7,0.2,3.3,0.8,4.9,1.5c0,0,0.1,0.1,0.1,0.1c0,0,0.1,0.1,0.2,0c-1.9,0-3.8-0.1-5.7,0c-0.4,0-0.8,0-1.1,0.1
		c-0.7,0.1-1.3,0.3-1.9,0.7c-1.1,0.7-2.2,1.5-3.3,2.3c-0.5,0.4-0.9,1-1.2,1.6c-0.1,0.2-0.2,0.3-0.4,0.2c-0.3-0.1-0.5-0.3-0.6-0.5
		c-0.1-0.2-0.2-0.3-0.3-0.5c-0.2,0-0.2,0.1-0.2,0.2c-0.2,0.6-0.3,1.1-0.5,1.7c-0.1,0.2-0.2,0.2-0.3,0.2c-0.4-0.1-0.7-0.3-0.9-0.7
		c-0.1-0.3-0.2-0.5-0.3-0.8c0-0.2,0-0.4-0.2-0.5c-0.1,0.1-0.2,0.2-0.2,0.4c-0.1,0.4-0.1,0.8-0.1,1.3c0,0.4,0.1,0.8,0.1,1.1
		c0,0.2-0.1,0.3-0.3,0.4c-0.5,0.3-1,0.3-1.6,0.1c-0.2-0.1-0.5-0.2-0.7-0.2c-0.1,0.1-0.1,0.3,0,0.4c0,0.2,0.1,0.4,0.1,0.7
		c0,0.1-0.1,0.2-0.2,0.2c-0.1,0-0.2,0-0.3,0.1c-0.4,0.1-0.9,0.2-1.3,0.3c-0.9,0.2-1.5,0.7-2,1.5c0,0.1-0.1,0.2,0,0.2c0,0,0,0,0,0
		C16,13.9,16,14,16.1,14.2L16.1,14.2z"/>
	<path class="st0" d="M46.2,38.1C46.2,38.1,46.1,38.2,46.2,38.1c-0.1,0.1-0.2,0.1-0.2,0c-0.2-0.3-0.4-0.7-0.5-1.1
		c-0.5-1.8-1.1-3.5-1.4-5.3c-0.3-2-1.1-3.8-1.9-5.7c-1.4-2.9-3.1-5.5-5.4-7.7c-0.1-0.1-0.2-0.3-0.4-0.4c0-0.1,0-0.1,0-0.2
		c0-0.1,0.1-0.1,0.2,0c0.2,0.1,0.4,0.2,0.6,0.4c1.2,1,2.3,2.1,3.5,3.1c1.7,1.5,2.8,3.4,3.4,5.5c0.4,1.3,0.6,2.6,0.8,4
		c0.2,1.5,0.4,3,0.7,4.5c0.1,0.7,0.3,1.4,0.5,2.2C46.1,37.7,46.2,37.9,46.2,38.1z"/>
	<path class="st0" d="M41.8,39.8c0.3,0.3,0.5,0.6,0.8,0.9c0.2,0.3,0.5,0.5,0.8,0.7c0.3,0.2,0.7,0.3,1.1,0.5c0.3,0.1,0.7,0.2,1.1,0.2
		c0.4,0,0.7,0,1.1,0.1c0.1,0.1,0,0.2-0.1,0.3c-0.7,1.1-1.7,1.8-2.9,2.2c-1.6,0.5-3.2,0.5-4.8,0c-1.5-0.5-2.4-1.6-2.8-3.1
		c-0.1-0.5-0.1-1.1,0-1.6c0.1,0,0.1,0.1,0.2,0.2c0.1,0.2,0.1,0.4,0.2,0.6c0.5,1.6,1.6,2.4,3.3,2.6c1.1,0.1,2.2,0,3.2-0.1
		c0.3,0,0.6-0.1,0.9-0.1c0-0.2-0.1-0.2-0.2-0.2c-0.4-0.2-0.8-0.5-1.1-0.9C42.1,41.2,41.9,40.6,41.8,39.8z"/>
	<path class="st0" d="M16.1,20.7c0.3-0.3,0.7-0.5,1.2-0.6c0.6-0.2,1.3-0.4,2-0.4c0.1,0,0.2,0,0.2,0.1c0.1,0.1,0,0.2-0.1,0.3
		c-0.4,0.5-0.8,1-1.2,1.4c-0.3,0.3-0.5,0.3-0.8,0.1c-0.3-0.1-0.5-0.3-0.7-0.5C16.5,21,16.3,20.9,16.1,20.7z"/>
	<path class="st0" d="M16.1,14.2C16,14,16,13.9,16.2,13.8c0,0,0.1,0,0.1,0.1C16.3,14,16.3,14.1,16.1,14.2z"/>
	<path class="st0" d="M50.8,46.5c0,0,0.1-0.1,0.2,0c0.1,0.1,0,0.2-0.1,0.2C50.9,46.6,50.8,46.6,50.8,46.5z"/>
	<path class="st0" d="M40.7,49.9c0.1,0,0.1-0.1,0.2,0c0.1,0.1,0,0.1,0,0.2C40.8,50,40.7,50,40.7,49.9z"/>
</g>
</svg>
